------------------------------:TPB IS BENEDICTION TO ME :--------------------------


Screen Link :---
 
http://www.shotpix.com/images/22749121293452826475.jpg
 
http://www.shotpix.com/images/46078866143279826317.jpg


General Info :---

Format                           : MPEG-4
Format profile                   : Base Media / Version 2
Codec ID                         : mp42
File size                        : 350 MiB
Duration                         : 2h 22mn
Overall bit rate                 : 343 Kbps
Encoded date                     : UTC 2011-05-31 04:24:16
Tagged date                      : UTC 2011-05-31 05:22:35
Writing application              : HandBrake 0.9.5 2011010300

Video
ID                               : 1
Format                           : AVC
Format/Info                      : Advanced Video Codec
Format profile                   : Main@L3.0
Format settings, CABAC           : Yes
Format settings, ReFrames        : 4 frames
Codec ID                         : avc1
Codec ID/Info                    : Advanced Video Coding
Duration                         : 2h 22mn
Bit rate mode                    : Variable
Bit rate                         : 180 Kbps
Width                            : 592 pixels
Height                           : 400 pixels
Display aspect ratio             : 3:2
Frame rate mode                  : Constant
Frame rate                       : 25.000 fps
Color space                      : YUV
Chroma subsampling               : 4:2:0
Bit depth                        : 8 bits
Scan type                        : Progressive
Bits/(Pixel*Frame)               : 0.030
Stream size                      : 182 MiB (52%)

Audio
ID                               : 2
Format                           : AAC
Format/Info                      : Advanced Audio Codec
Format profile                   : LC
Codec ID                         : 40
Duration                         : 2h 22mn
Bit rate mode                    : Variable
Bit rate                         : 160 Kbps
Maximum bit rate                 : 200 Kbps
Channel(s)                       : 2 channels
Channel positions                : Front: L R
Sampling rate                    : 44.1 KHz
Compression mode                 : Lossy
Stream size                      : 163 MiB (47%)


Starring: Swastika Mukherjee, Silajit Majumdar, Rajatava Dutta, Biswajit Chakrabarty, Rajesh Sharma, Rudranil Ghosh, Kanchan Mallik, Anjana Basu, Kharaj Mukherjee, Kanchana Maitra, Sonalee Choudhury, Phalguni Chatterjee, Priya Karfa and Others.


Release Date: 28th January, 2011

Directed By : Aniket Chattopadhyay

Story       : Aniket Chattopadhyay 

Screenplay  : Aniket Chattopadhyay

Produced by : R. P. Techvision (I) Pvt. Ltd. ( Kaustuv Roy )


Story ( Synopsis ) :---

Bye Bye Bangkok revolves around a few couples, played by Anjana- Shilajit ( noted actor -singer) , Sonali Chowdhury -Kharaj Mukherjee ,  Kanchan Mallik-Kanchana Moitra , Neil Mukherjee-Locket Chatterjee. Incidentally  they all happen to be present in Bangkok. Here in Bangkok these couples get tempted to take a bite of the forbidden fruit resulting in  extra-marital affairs in hilarious circumstances.





------------------------------:TPB IS BENEDICTION TO ME :--------------------------




